<svg aria-hidden="true" style="position: absolute; width: 0; height: 0; overflow: hidden;" version="1.1" xmlns="http://www.w3.org/2000/svg" xmlns:xlink="http://www.w3.org/1999/xlink">
<defs>
<symbol id="icon-youtube" viewBox="0 0 32 32">
<title>youtube</title>
<path fill="#f00" style="fill: #cbcbcb" d="M31.327 8.273c-0.386-1.353-1.431-2.398-2.756-2.777l-0.028-0.007c-2.493-0.668-12.528-0.668-12.528-0.668s-10.009-0.013-12.528 0.668c-1.353 0.386-2.398 1.431-2.777 2.756l-0.007 0.028c-0.443 2.281-0.696 4.903-0.696 7.585 0 0.054 0 0.109 0 0.163l-0-0.008c-0 0.037-0 0.082-0 0.126 0 2.682 0.253 5.304 0.737 7.845l-0.041-0.26c0.386 1.353 1.431 2.398 2.756 2.777l0.028 0.007c2.491 0.669 12.528 0.669 12.528 0.669s10.008 0 12.528-0.669c1.353-0.386 2.398-1.431 2.777-2.756l0.007-0.028c0.425-2.233 0.668-4.803 0.668-7.429 0-0.099-0-0.198-0.001-0.297l0 0.015c0.001-0.092 0.001-0.201 0.001-0.31 0-2.626-0.243-5.196-0.708-7.687l0.040 0.258zM12.812 20.801v-9.591l8.352 4.803z"></path>
</symbol>
<symbol id="icon-instagram" viewBox="0 0 32 32">
<title>instagram</title>
<path fill="#e4405f" style="fill: #cbcbcb" d="M16 0c-4.347 0-4.889 0.020-6.596 0.096-1.704 0.080-2.864 0.348-3.884 0.744-1.052 0.408-1.945 0.956-2.835 1.845s-1.439 1.781-1.845 2.835c-0.396 1.020-0.665 2.18-0.744 3.884-0.080 1.707-0.096 2.249-0.096 6.596s0.020 4.889 0.096 6.596c0.080 1.703 0.348 2.864 0.744 3.884 0.408 1.051 0.956 1.945 1.845 2.835 0.889 0.888 1.781 1.439 2.835 1.845 1.021 0.395 2.181 0.665 3.884 0.744 1.707 0.080 2.249 0.096 6.596 0.096s4.889-0.020 6.596-0.096c1.703-0.080 2.864-0.349 3.884-0.744 1.051-0.408 1.945-0.957 2.835-1.845 0.888-0.889 1.439-1.78 1.845-2.835 0.395-1.020 0.665-2.181 0.744-3.884 0.080-1.707 0.096-2.249 0.096-6.596s-0.020-4.889-0.096-6.596c-0.080-1.703-0.349-2.865-0.744-3.884-0.408-1.052-0.957-1.945-1.845-2.835-0.889-0.889-1.78-1.439-2.835-1.845-1.020-0.396-2.181-0.665-3.884-0.744-1.707-0.080-2.249-0.096-6.596-0.096zM16 2.88c4.271 0 4.78 0.021 6.467 0.095 1.56 0.073 2.407 0.332 2.969 0.553 0.749 0.289 1.28 0.636 1.843 1.195 0.559 0.56 0.905 1.092 1.195 1.841 0.219 0.563 0.48 1.409 0.551 2.969 0.076 1.688 0.093 2.195 0.093 6.467s-0.020 4.78-0.099 6.467c-0.081 1.56-0.341 2.407-0.561 2.969-0.299 0.749-0.639 1.28-1.199 1.843-0.559 0.559-1.099 0.905-1.84 1.195-0.56 0.219-1.42 0.48-2.98 0.551-1.699 0.076-2.199 0.093-6.479 0.093-4.281 0-4.781-0.020-6.479-0.099-1.561-0.081-2.421-0.341-2.981-0.561-0.759-0.299-1.28-0.639-1.839-1.199-0.561-0.559-0.92-1.099-1.2-1.84-0.22-0.56-0.479-1.42-0.56-2.98-0.060-1.68-0.081-2.199-0.081-6.459 0-4.261 0.021-4.781 0.081-6.481 0.081-1.56 0.34-2.419 0.56-2.979 0.28-0.76 0.639-1.28 1.2-1.841 0.559-0.559 1.080-0.919 1.839-1.197 0.56-0.221 1.401-0.481 2.961-0.561 1.7-0.060 2.2-0.080 6.479-0.080l0.060 0.040zM16 7.784c-4.54 0-8.216 3.68-8.216 8.216 0 4.54 3.68 8.216 8.216 8.216 4.54 0 8.216-3.68 8.216-8.216 0-4.54-3.68-8.216-8.216-8.216zM16 21.333c-2.947 0-5.333-2.387-5.333-5.333s2.387-5.333 5.333-5.333 5.333 2.387 5.333 5.333-2.387 5.333-5.333 5.333zM26.461 7.46c0 1.060-0.861 1.92-1.92 1.92-1.060 0-1.92-0.861-1.92-1.92s0.861-1.919 1.92-1.919c1.057-0.001 1.92 0.86 1.92 1.919z"></path>
</symbol>
<symbol id="icon-vk" viewBox="0 0 32 32">
<title>vk</title>
<path fill="#6383a8" style="fill: #cbcbcb" d="M15.601 25.028h1.916s0.577-0.063 0.872-0.379c0.28-0.295 0.28-0.84 0.28-0.84s-0.041-2.569 1.159-2.947c1.183-0.375 2.683 2.48 4.281 3.577 1.221 0.839 2.14 0.659 2.14 0.659l4.281-0.059s2.243-0.14 1.183-1.901c-0.081-0.14-0.601-1.3-3.161-3.68-2.683-2.481-2.323-2.081 0.901-6.383 1.959-2.62 2.76-4.221 2.5-4.901-0.221-0.64-1.68-0.481-1.68-0.481l-4.803 0.041s-0.36-0.041-0.62 0.12c-0.26 0.159-0.419 0.521-0.419 0.521s-0.763 2.039-1.781 3.76c-2.164 3.639-3.024 3.839-3.364 3.599-0.805-0.521-0.599-2.107-0.599-3.243 0-3.521 0.539-5-1.041-5.38-0.52-0.121-0.908-0.2-2.247-0.221-1.72-0.019-3.171 0.013-3.993 0.415-0.54 0.271-0.96 0.869-0.719 0.9 0.32 0.040 1.039 0.195 1.419 0.716 0.5 0.675 0.479 2.181 0.479 2.181s0.281 4.155-0.659 4.671c-0.66 0.349-1.54-0.373-3.46-3.675-0.98-1.68-1.721-3.56-1.721-3.56s-0.14-0.341-0.399-0.541c-0.303-0.22-0.743-0.3-0.743-0.3l-4.58 0.040s-0.68 0.021-0.919 0.32c-0.221 0.26-0.021 0.82-0.021 0.82s3.581 8.383 7.643 12.604c3.72 3.869 7.941 3.62 7.941 3.62l-0.067-0.073z"></path>
</symbol>
<symbol id="icon-odnoklassniki" viewBox="0 0 32 32">
<title>odnoklassniki</title>
<path fill="#f4731c" style="fill: #cbcbcb" d="M19.34 23.253c1.7-0.387 3.324-1.059 4.8-1.987 1.112-0.744 1.411-2.248 0.667-3.36-0.715-1.069-2.139-1.392-3.247-0.737-3.4 2.127-7.72 2.127-11.12 0-1.129-0.712-2.62-0.373-3.333 0.753 0 0.003 0 0.005-0.003 0.007-0.712 1.129-0.373 2.621 0.756 3.333l0.003 0.003c1.473 0.927 3.096 1.6 4.795 1.984l-4.62 4.62c-0.943 0.927-0.96 2.44-0.037 3.383l0.040 0.040c0.459 0.472 1.080 0.707 1.699 0.707 0.62 0 1.24-0.235 1.7-0.707l4.561-4.539 4.539 4.541c0.96 0.927 2.493 0.901 3.421-0.060 0.904-0.937 0.904-2.424 0-3.36l-4.62-4.621zM16 16.517c4.56-0.005 8.253-3.699 8.26-8.257 0-4.553-3.707-8.26-8.26-8.26s-8.26 3.707-8.26 8.263c0.007 4.56 3.701 8.253 8.26 8.256zM16 4.841c1.888 0.003 3.417 1.533 3.419 3.42 0 1.888-1.531 3.417-3.419 3.42-1.887-0.003-3.416-1.531-3.42-3.419 0.003-1.889 1.533-3.419 3.42-3.423z"></path>
</symbol>
</defs>
</svg>
